<?xml version="1.0" standalone="no"?>
<!DOCTYPE svg PUBLIC "-//W3C//DTD SVG 20010904//EN"
 "http://www.w3.org/TR/2001/REC-SVG-20010904/DTD/svg10.dtd">
<svg version="1.0" xmlns="http://www.w3.org/2000/svg"
 width="700.000000pt" height="700.000000pt" viewBox="0 0 700.000000 700.000000"
 preserveAspectRatio="xMidYMid meet">
<metadata>
Created by potrace 1.14, written by Peter Selinger 2001-2017
</metadata>
<g transform="translate(0.000000,700.000000) scale(0.100000,-0.100000)"
fill="#000000" stroke="none">
<path d="M3278 6995 c-1 -1 -42 -5 -89 -9 -47 -4 -95 -8 -105 -10 -10 -2 -41
-7 -69 -10 -335 -44 -715 -158 -1030 -312 -180 -87 -448 -247 -555 -331 -8 -6
-51 -40 -95 -74 -340 -264 -650 -624 -875 -1014 -47 -81 -170 -327 -170 -339
0 -3 -11 -29 -24 -58 -41 -92 -114 -303 -142 -413 -4 -16 -8 -34 -10 -40 -5
-16 -25 -98 -30 -120 -39 -194 -47 -242 -60 -350 -26 -230 -26 -667 1 -826 2
-13 6 -46 9 -74 9 -78 22 -152 51 -285 21 -96 91 -339 114 -395 5 -11 29 -74
55 -141 55 -142 169 -372 246 -497 30 -48 60 -95 65 -105 24 -42 133 -191 208
-285 163 -202 344 -382 557 -552 92 -74 370 -265 386 -265 4 0 15 -6 23 -14 9
-8 81 -47 161 -88 305 -156 611 -262 930 -323 96 -18 123 -23 179 -31 25 -3
57 -8 71 -10 163 -25 682 -25 842 1 13 2 46 6 73 10 28 3 59 8 70 10 11 3 31
7 45 9 72 12 111 19 165 33 33 8 71 17 85 20 62 11 278 80 400 128 646 251
1187 671 1590 1235 223 312 382 637 510 1045 11 36 59 229 66 265 2 14 7 36
10 50 3 14 7 37 9 52 2 15 8 53 14 85 9 52 15 99 28 213 8 75 10 510 3 595 -8
84 -18 174 -25 220 -1 11 -6 43 -10 70 -3 28 -8 58 -11 67 -5 18 -11 46 -20
93 -11 63 -64 266 -78 300 -8 19 -13 35 -11 35 2 0 -12 43 -31 97 -221 611
-569 1114 -1059 1529 -311 264 -728 497 -1130 632 -168 57 -420 119 -555 137
-19 3 -46 7 -60 10 -13 2 -52 7 -86 11 -33 3 -74 8 -90 10 -32 5 -540 14 -546
9z"/>
</g>
</svg>
