<svg xmlns="http://www.w3.org/2000/svg" viewBox="0 0 326.35 326.35"><defs><style>.cls-1{fill:#3777ff;}.cls-2{fill:#fff;}</style></defs><g id="Layer_2" data-name="Layer 2"><g id="Layer_1-2" data-name="Layer 1"><circle class="cls-1" cx="163.18" cy="163.18" r="163.18"/><path class="cls-2" d="M95.75,60.3l6.51-3.5,1.45,2.7L92.2,65.69,90.75,63a35.05,35.05,0,0,0,2.66-6.74c.72-2.83,1.15-5.63.09-7.6a2.45,2.45,0,0,0-3.68-1.14,3.89,3.89,0,0,0-1.91,3.73l-3.66.11a7.37,7.37,0,0,1,4.23-6.64c3.6-1.94,6.83-1,8.45,2,1.37,2.55,1,5.7.22,9.22A23.39,23.39,0,0,1,95.75,60.3Z"/><path class="cls-2" d="M102.88,48.88c-3-7.67-.53-10.79,3.06-12.18s7.47-.71,10.43,7,.55,10.82-3,12.2S105.86,56.58,102.88,48.88Zm9.81-3.8c-2.16-5.61-4-6.14-5.63-5.5s-2.67,2.26-.5,7.88,4,6.17,5.67,5.51S114.87,50.72,112.69,45.08ZM108,46.91c-.79-2-.13-2.68.76-3s1.77-.32,2.57,1.74.14,2.71-.72,3S108.77,49,108,46.91Z"/><path class="cls-2" d="M127.62,47.75,134.8,46l.74,3L122.85,52.1l-.74-3a33.7,33.7,0,0,0,4.24-5.87c1.39-2.56,2.51-5.17,2-7.34a2.47,2.47,0,0,0-3.29-2A3.91,3.91,0,0,0,122.26,37l-3.57-.79a7.35,7.35,0,0,1,5.74-5.39c4-1,6.86.7,7.69,4,.7,2.81-.41,5.77-2.06,9A23.92,23.92,0,0,1,127.62,47.75Z"/><path class="cls-2" d="M151.2,43.71l.37,3L140.46,48.1l-.37-3,3.8-.46-1.54-12.74-2.94,2.29-1.9-2.69,4.94-3.8,3.17-.38,2,16.86Z"/><path class="cls-2" d="M166.88,36.23v3.09l-9,0V36.21Z"/><path class="cls-2" d="M178.77,44.38l7.34.91-.38,3-13-1.6.38-3a34.65,34.65,0,0,0,6.06-4c2.22-1.9,4.19-3.93,4.47-6.15a2.46,2.46,0,0,0-2.34-3.06,3.89,3.89,0,0,0-3.71,1.93l-3.06-2a7.35,7.35,0,0,1,7.29-3c4.06.5,6.16,3.13,5.74,6.52-.35,2.87-2.46,5.24-5.15,7.65A24.5,24.5,0,0,1,178.77,44.38Z"/><path class="cls-2" d="M191.16,39.17c2-8,5.77-9.14,9.51-8.21s6.51,3.72,4.52,11.7-5.77,9.16-9.48,8.24S189.17,47.17,191.16,39.17Zm10.21,2.54c1.45-5.84.29-7.31-1.45-7.75s-3.48.32-4.94,6.16-.3,7.33,1.47,7.78S199.91,47.57,201.37,41.71Zm-4.92-1.23c.53-2.14,1.43-2.27,2.36-2s1.63.76,1.1,2.9-1.44,2.3-2.34,2.08S195.91,42.65,196.45,40.48Z"/><path class="cls-2" d="M212.08,52.47l6.9,2.65L217.88,58l-12.21-4.69,1.11-2.86a34.36,34.36,0,0,0,6.84-2.37c2.61-1.3,5-2.8,5.83-4.89a2.45,2.45,0,0,0-1.53-3.53,3.91,3.91,0,0,0-4.08,1l-2.47-2.7a7.35,7.35,0,0,1,7.79-1.12c3.82,1.47,5.22,4.52,4,7.71-1,2.7-3.66,4.49-6.85,6.18A25.38,25.38,0,0,1,212.08,52.47Z"/><path class="cls-2" d="M227.72,59.51,234.24,63l-1.45,2.71-11.53-6.16,1.45-2.71a34.27,34.27,0,0,0,7.08-1.51c2.75-1,5.33-2.15,6.38-4.13a2.44,2.44,0,0,0-1.08-3.69,3.89,3.89,0,0,0-4.16.47l-2.12-3a7.33,7.33,0,0,1,7.87-.14c3.6,1.92,4.62,5.13,3,8.14-1.36,2.55-4.18,4-7.56,5.28A24.47,24.47,0,0,1,227.72,59.51Z"/><path class="cls-2" d="M98,138.14c0-15.67,5.9-19.55,14.69-19.55s14.64,3.88,14.64,19.55-5.9,19.61-14.64,19.61S98,153.87,98,138.14Zm19.33,0c0-9.06-2-11.9-4.64-11.9s-4.7,2.84-4.7,11.9,2,12,4.7,12S117.31,147.26,117.31,138.14Z"/><path class="cls-2" d="M159.19,126.51H150.4v30.64h-9.77V126.51h-8.74v-7.59h27.3Z"/><path class="cls-2" d="M191.9,118.92v38.23h-9.77V141.09h-7.6v16.06h-9.77V118.92h9.77v14.52h7.6V118.92Z"/><path class="cls-2" d="M225.92,146.17c0,8.85-7,11.58-15.18,11.58-7.92,0-12.72-3-15.24-8.3l8.2-4a7.4,7.4,0,0,0,7,4.69c2.78,0,5.13-1.42,5.13-3.71,0-2.08-2.29-3.61-5.89-4.86-3.83-1.31-12.51-4.21-12.51-12.78,0-7.48,6.94-10.16,14.42-10.16,6.5,0,11.9,3.11,13.65,8.19l-7.37,4c-1.26-2.89-3.55-4.53-6.28-4.53-3.12,0-4.32,1.31-4.32,2.73,0,1.2,1.15,3.11,4,4.15C216.2,134.76,225.92,137.05,225.92,146.17Z"/><path class="cls-2" d="M115.69,174.16l-1.47,1.71a6.45,6.45,0,0,0-4.35-1.53c-3.36,0-6.31,2.16-6.31,8.47,0,6.15,2.74,8.46,6.28,8.46a7.21,7.21,0,0,0,4.8-1.71l1.35,1.69a8.52,8.52,0,0,1-6.18,2.25c-5,0-9-3.73-9-10.69s4.09-10.66,8.86-10.66A8.83,8.83,0,0,1,115.69,174.16Z"/><path class="cls-2" d="M132.77,185.24c0,4.86-2.4,8.26-6.81,8.26s-6.82-3.24-6.82-8.23S121.54,177,126,177,132.77,180.26,132.77,185.24Zm-10.89,0c0,4.2,1.35,6.16,4.08,6.16s4.08-2,4.08-6.19-1.35-6.16-4-6.16S121.88,181.07,121.88,185.27Z"/><path class="cls-2" d="M151.44,181.4v11.77h-2.31V181.82c0-2-.09-2.83-1.23-2.83a3.35,3.35,0,0,0-2.76,1.9v12.28H142.8V181.82c0-2-.09-2.83-1.23-2.83-1,0-1.9.54-2.77,1.9v12.28h-2.31V177.34h1.95l.18,1.87a4.08,4.08,0,0,1,3.43-2.2,2.73,2.73,0,0,1,2.85,2.1,4.07,4.07,0,0,1,3.48-2.1C149.91,177,151.44,177.76,151.44,181.4Z"/><path class="cls-2" d="M168.8,185.24c0,4.81-2,8.26-6.1,8.26a5.36,5.36,0,0,1-4.2-1.8v7.53l-2.52.3V177.34h2.16l.21,2.23a5.69,5.69,0,0,1,4.71-2.56C167.26,177,168.8,180.29,168.8,185.24Zm-10.3-3.66v7.83a4.35,4.35,0,0,0,3.63,2c2.61,0,3.93-2,3.93-6.16s-1.11-6.19-3.6-6.19A5.1,5.1,0,0,0,158.5,181.58Z"/><path class="cls-2" d="M179.54,193.5a10.2,10.2,0,0,1-7.27-2.61l1.56-1.78a7.9,7.9,0,0,0,5.74,2.23c2.52,0,4.8-1.24,4.8-3.85,0-2-1-3-4.5-4-4.11-1.2-6.67-2.7-6.67-6,0-3.12,2.74-5.34,6.7-5.34a9.58,9.58,0,0,1,6.61,2.37l-1.57,1.68a7.39,7.39,0,0,0-4.95-1.86c-2.28,0-4.15,1-4.15,3.06,0,1.77,1.27,2.67,5.2,3.82,3.24.93,6.06,2.28,6.06,6.21C187.1,191,184.34,193.5,179.54,193.5Z"/><path class="cls-2" d="M203.29,190l1.2,1.66a8.65,8.65,0,0,1-5.32,1.89c-4.74,0-7.44-3.22-7.44-8.17,0-4.74,2.73-8.32,7.44-8.32a8,8,0,0,1,5.29,1.86l-1.23,1.66a7.28,7.28,0,0,0-4.09-1.38c-2.73,0-4.68,2-4.68,6.18s2,6,4.71,6A7.16,7.16,0,0,0,203.29,190Z"/><path class="cls-2" d="M218,191.16h4.45v2H210.63v-2h4.87v-11.8h-4.71v-2H218Zm-.15-19.43A1.74,1.74,0,0,1,216,173.5a1.77,1.77,0,1,1,0-3.54A1.74,1.74,0,0,1,217.87,171.73Z"/><path class="cls-2" d="M170.09,299.08,169,275.76a116.46,116.46,0,0,0,42.45-10.17L221,286.87A139.69,139.69,0,0,1,170.09,299.08Zm-15-.09a139.51,139.51,0,0,1-50.78-12.77L114.11,265a116.08,116.08,0,0,0,42.32,10.65Zm79.34-19-11.84-20.12A118,118,0,0,0,255.39,231l18.37,14.41a143.24,143.24,0,0,1-11.28,12.74A141.27,141.27,0,0,1,234.39,280ZM91,279.15a140.41,140.41,0,0,1-26.75-21,142.18,142.18,0,0,1-12.24-14L70.51,230a119,119,0,0,0,10.23,11.66A117.32,117.32,0,0,0,103,259.16Zm191.42-46-19.82-12.35a115.72,115.72,0,0,0,15.71-40.69l23,4.18A139.05,139.05,0,0,1,282.4,233.13ZM43.48,231.79a139,139,0,0,1-18.3-49.08l23-3.92a115.79,115.79,0,0,0,15.25,40.88Zm259.67-62.43-23.28-1.72c.21-2.83.31-5.71.31-8.58a117.22,117.22,0,0,0-5.27-34.8l22.3-6.92C301.4,130.85,303.41,166,303.15,169.36Zm-279.7-1.58c-.19-2.9-.27-5.83-.27-8.73A140.18,140.18,0,0,1,30,115.83L52.2,123a116.91,116.91,0,0,0-5.67,36.05c0,2.42.07,4.86.22,7.26Zm247.1-55.27A116.48,116.48,0,0,0,246,76.45L262.13,59.6l.57.58a138.92,138.92,0,0,1,29.27,43Zm-213.86-1.2-21.31-9.53A139.51,139.51,0,0,1,64.24,59.94l1.1-1.09L81.69,75.52l-1,1A116.62,116.62,0,0,0,56.69,111.31Z"/></g></g></svg>